<svg width="129" height="20" viewBox="0 0 129 20" fill="none" xmlns="http://www.w3.org/2000/svg">
<g clip-path="url(#clip0_509_1527)">
<path d="M60.8591 2.12617H54.5778V0H69.4901V2.12617H63.2088V19.6028H60.8591V2.12617Z" fill="black"/>
<path d="M70.4207 5.91099H72.561V7.59323H72.9565C73.4218 6.37828 74.3989 5.86426 76.0507 5.86426H77.6792V7.8736H75.9111C73.9336 7.8736 72.6076 8.97174 72.6076 11.2615V19.6026H70.3975V5.91099H70.4207Z" fill="black"/>
<path d="M79.5635 15.7245C79.5635 12.9441 81.7736 11.589 84.7049 11.589H89.3112V10.5843C89.3112 8.64507 88.1945 7.45349 85.9379 7.45349C83.6812 7.45349 82.5413 8.62171 82.1225 10.3974L80.052 9.71984C80.7034 7.43012 82.5413 5.5376 85.9611 5.5376C89.381 5.5376 91.498 7.45349 91.498 10.7245V16.9161C91.498 17.4768 91.7772 17.7572 92.289 17.7572H93.5453V19.6264H91.6143C90.3813 19.6264 89.5671 18.9021 89.5671 17.7105V17.5703H89.2414C88.6598 18.6684 87.5198 20.0002 84.6816 20.0002C81.8434 20.0002 79.5867 18.4582 79.5867 15.7245H79.5635ZM89.3112 13.6684V13.3647H84.7979C83.0531 13.3647 81.7968 14.1124 81.7968 15.6544C81.7968 17.1965 83.0531 18.0843 84.9608 18.0843C87.5896 18.0843 89.3344 16.4488 89.3344 13.6451L89.3112 13.6684Z" fill="black"/>
<path d="M94.3595 5.91113H96.7092L100.804 17.9672H101.199L105.294 5.91113H107.643L102.758 19.6027H99.245L94.3595 5.91113Z" fill="black"/>
<path d="M109.598 12.9441V12.617C109.598 8.38807 112.389 5.5376 116.367 5.5376C120.346 5.5376 122.928 8.17779 122.928 12.3367V13.3413H111.831C111.924 16.2853 113.878 18.0376 116.577 18.0376C118.926 18.0376 120.066 16.7993 120.741 15.2806L122.649 16.2152C121.811 17.9441 120.183 20.0002 116.53 20.0002C112.366 20.0002 109.621 17.1731 109.621 12.9441H109.598ZM120.695 11.5189C120.532 8.97218 118.833 7.47685 116.367 7.47685C113.901 7.47685 112.18 8.97218 111.854 11.5189H120.695Z" fill="black"/>
<path d="M126.79 0H129V19.6262H126.79V0Z" fill="black"/>
<path d="M0 0H2.41948L7.74698 18.2009H8.11921L13.4467 0H15.8662L9.98034 19.6262H5.88584L0 0Z" fill="black"/>
<path d="M43.946 0H39.8283L33.8029 19.6028H36.2223L37.7345 14.6495L38.3394 12.5234L41.6894 1.42523H42.0849L45.435 12.5234L46.0398 14.6495L47.552 19.6028H49.9715L43.946 0Z" fill="black"/>
<path d="M15.8662 0H39.8283L33.8029 19.6262H9.98035L15.8662 0Z" fill="#E6CE4D"/>
</g>
<defs>
<clipPath id="clip0_509_1527">
<rect width="129" height="20" fill="white"/>
</clipPath>
</defs>
</svg>
