<svg width="157" height="24" viewBox="0 0 157 24" fill="none" xmlns="http://www.w3.org/2000/svg">
<g clip-path="url(#clip0_16_598)">
<path d="M73.7797 2.5514H66.1648V0H84.2431V2.5514H76.6282V23.5234H73.7797V2.5514Z" fill="black"/>
<path d="M85.3712 7.09367H87.9659V9.11236H88.4454C89.0094 7.65442 90.194 7.0376 92.1964 7.0376H94.1706V9.44881H92.0272C89.6299 9.44881 88.0223 10.7666 88.0223 13.5142V23.5236H85.343V7.09367H85.3712Z" fill="black"/>
<path d="M96.4551 18.8693C96.4551 15.5329 99.1344 13.9067 102.688 13.9067H108.272V12.7011C108.272 10.374 106.918 8.94409 104.183 8.94409C101.447 8.94409 100.065 10.346 99.5574 12.4768L97.0473 11.6637C97.837 8.91605 100.065 6.64502 104.211 6.64502C108.357 6.64502 110.923 8.94409 110.923 12.8693V20.2992C110.923 20.9721 111.262 21.3086 111.882 21.3086H113.405V23.5516H111.064C109.57 23.5516 108.582 22.6824 108.582 21.2525V21.0843H108.188C107.483 22.402 106.101 24.0002 102.66 24.0002C99.219 24.0002 96.4833 22.1497 96.4833 18.8693H96.4551ZM108.272 16.402V16.0375H102.801C100.686 16.0375 99.1626 16.9347 99.1626 18.7852C99.1626 20.6357 100.686 21.7011 102.998 21.7011C106.185 21.7011 108.3 19.7385 108.3 16.374L108.272 16.402Z" fill="black"/>
<path d="M114.392 7.09326H117.241L122.205 21.5606H122.684L127.648 7.09326H130.496L124.574 23.5232H120.315L114.392 7.09326Z" fill="black"/>
<path d="M132.865 15.5329V15.1403C132.865 10.0656 136.25 6.64502 141.073 6.64502C145.895 6.64502 149.026 9.81324 149.026 14.8039V16.0095H135.573C135.686 19.5422 138.055 21.645 141.326 21.645C144.175 21.645 145.557 20.159 146.375 18.3366L148.688 19.4581C147.672 21.5329 145.698 24.0002 141.27 24.0002C136.222 24.0002 132.894 20.6076 132.894 15.5329H132.865ZM146.318 13.8226C146.121 10.7665 144.062 8.97212 141.073 8.97212C138.083 8.97212 135.996 10.7665 135.601 13.8226H146.318Z" fill="black"/>
<path d="M153.708 0H156.387V23.5514H153.708V0Z" fill="black"/>
<path d="M0 0H2.93314L9.39169 21.8411H9.84294L16.3015 0H19.2346L12.0992 23.5514H7.13543L0 0Z" fill="black"/>
<path d="M53.276 0H48.284L40.9794 23.5234H43.9125L45.7457 17.5794L46.479 15.028L50.5403 1.71028H51.0197L55.081 15.028L55.8143 17.5794L57.6475 23.5234H60.5806L53.276 0Z" fill="black"/>
<path d="M19.2347 0H48.284L40.9794 23.5514H12.0992L19.2347 0Z" fill="#E6CE4D"/>
</g>
<defs>
<clipPath id="clip0_16_598">
<rect width="156.387" height="24" fill="white"/>
</clipPath>
</defs>
</svg>
