<svg width="130" height="59" viewBox="0 0 130 59" fill="none" xmlns="http://www.w3.org/2000/svg">
<g clip-path="url(#clip0_497_846)">
<path fill-rule="evenodd" clip-rule="evenodd" d="M21.5246 21.9073C20.5769 21.2741 19.4627 20.9361 18.3229 20.9361V15.1733C20.6025 15.1733 22.8308 15.8493 24.7262 17.1157C26.6215 18.3822 28.0987 20.1822 28.9711 22.2882C29.8434 24.3942 30.0717 26.7116 29.627 28.9473C29.1822 31.183 28.0846 33.2367 26.4727 34.8485C24.8608 36.4604 22.8072 37.5581 20.5715 38.0028C18.3357 38.4475 16.0183 38.2193 13.9123 37.347C11.8063 36.4746 10.0063 34.9974 8.73988 33.102C7.47344 31.2066 6.79749 28.9783 6.79749 26.6988H12.5602C12.5602 27.8386 12.8982 28.9527 13.5314 29.9004C14.1646 30.8481 15.0646 31.5867 16.1177 32.0229C17.1706 32.4591 18.3293 32.5732 19.4472 32.3508C20.5651 32.1285 21.5919 31.5796 22.3978 30.7737C23.2038 29.9677 23.7526 28.9409 23.9749 27.8231C24.1973 26.7052 24.0832 25.5465 23.647 24.4935C23.2108 23.4405 22.4722 22.5405 21.5246 21.9073Z" fill="#007DFC"/>
<path fill-rule="evenodd" clip-rule="evenodd" d="M12.5602 15.1733C12.5602 15.9301 12.4112 16.6795 12.1216 17.3786C11.8319 18.0778 11.4075 18.7131 10.8723 19.2482C10.3372 19.7833 9.70196 20.2078 9.00279 20.4974C8.30362 20.787 7.55426 20.9361 6.79749 20.9361L6.79749 26.6988C8.31103 26.6988 9.80975 26.4007 11.2081 25.8215C12.6064 25.2423 13.877 24.3933 14.9472 23.3231C16.0174 22.2529 16.8664 20.9823 17.4456 19.5839C18.0248 18.1856 18.3229 16.6869 18.3229 15.1733L12.5602 15.1733Z" fill="#007DFC"/>
<path d="M79.189 23.502H76.3929V32.3836H79.189V23.502Z" fill="#007DFC"/>
<path d="M76.7036 21.8386C76.9958 22.131 77.3612 22.2772 77.7997 22.2772C78.2383 22.2772 78.5978 22.131 78.8779 21.8386C79.1586 21.5341 79.2986 21.1685 79.2986 20.7421C79.2986 20.3035 79.1586 19.938 78.8779 19.6456C78.5978 19.3532 78.2383 19.207 77.7997 19.207C77.3612 19.207 76.9958 19.3532 76.7036 19.6456C76.423 19.938 76.283 20.3035 76.283 20.7421C76.283 21.1685 76.423 21.5341 76.7036 21.8386Z" fill="#007DFC"/>
<path d="M36.277 32.3837V19.4814H39.1462V29.8618H44.8663V32.3837H36.277Z" fill="#007DFC"/>
<path fill-rule="evenodd" clip-rule="evenodd" d="M50.035 32.5845C49.1212 32.5845 48.2928 32.3835 47.5496 31.9815C46.8186 31.5672 46.2399 31.0068 45.8134 30.3001C45.387 29.5935 45.1738 28.8016 45.1738 27.9244C45.1738 27.0472 45.387 26.2614 45.8134 25.5669C46.2399 24.8725 46.8186 24.3242 47.5496 23.9222C48.2806 23.5079 49.1091 23.3008 50.035 23.3008C50.9609 23.3008 51.7894 23.5018 52.5204 23.9039C53.2514 24.3059 53.8301 24.8603 54.2565 25.5669C54.683 26.2614 54.8962 27.0472 54.8962 27.9244C54.8962 28.8016 54.683 29.5935 54.2565 30.3001C53.8301 31.0068 53.2514 31.5672 52.5204 31.9815C51.7894 32.3835 50.9609 32.5845 50.035 32.5845ZM50.035 30.0443C50.437 30.0443 50.7904 29.959 51.095 29.7885C51.3995 29.6057 51.631 29.356 51.7894 29.0392C51.96 28.7103 52.0453 28.3386 52.0453 27.9244C52.0453 27.5102 51.96 27.1507 51.7894 26.8462C51.6188 26.5294 51.3813 26.2858 51.0766 26.1152C50.7842 25.9324 50.437 25.8411 50.035 25.8411C49.6451 25.8411 49.2979 25.9324 48.9933 26.1152C48.6887 26.2858 48.4512 26.5294 48.2806 26.8462C48.11 27.163 48.0248 27.5284 48.0248 27.9427C48.0248 28.3447 48.11 28.7103 48.2806 29.0392C48.4512 29.356 48.6887 29.6057 48.9933 29.7885C49.2979 29.959 49.6451 30.0443 50.035 30.0443Z" fill="#007DFC"/>
<path fill-rule="evenodd" clip-rule="evenodd" d="M57.1104 35.8561C57.8536 36.1972 58.7125 36.3678 59.6872 36.3678C60.6375 36.3678 61.4843 36.1789 62.2275 35.8012C62.9707 35.4236 63.5554 34.8997 63.9819 34.2296C64.4083 33.5595 64.6218 32.7676 64.6218 31.8538V23.5021H61.8802V24.0989C61.6763 23.9272 61.4448 23.7832 61.1858 23.6666C60.7106 23.4351 60.1684 23.3193 59.5593 23.3193C58.743 23.3193 58.0181 23.5143 57.3846 23.9041C56.751 24.2818 56.2515 24.8057 55.886 25.4758C55.5204 26.1337 55.3378 26.8769 55.3378 27.7054C55.3378 28.5217 55.5204 29.2649 55.886 29.935C56.2515 30.605 56.751 31.135 57.3846 31.5249C58.0181 31.9147 58.743 32.1097 59.5593 32.1097C60.1563 32.1097 60.6984 31.994 61.1858 31.7625C61.4218 31.6503 61.6351 31.5182 61.8254 31.366V31.927C61.8254 32.5483 61.6244 33.0295 61.2223 33.3707C60.8325 33.7118 60.2903 33.8824 59.5959 33.8824C59.0354 33.8824 58.5542 33.7849 58.1521 33.59C57.7623 33.3951 57.4089 33.1087 57.0921 32.731L55.3743 34.4489C55.8007 35.0581 56.3794 35.5272 57.1104 35.8561ZM61.0944 29.3684C60.8142 29.539 60.4792 29.6243 60.0893 29.6243C59.6994 29.6243 59.3583 29.539 59.0659 29.3684C58.7856 29.1978 58.5663 28.9664 58.408 28.674C58.2496 28.3694 58.1704 28.0465 58.1704 27.7054C58.1704 27.3399 58.2496 27.0109 58.408 26.7185C58.5663 26.4261 58.7917 26.1947 59.0841 26.0241C59.3765 25.8535 59.7116 25.7682 60.0893 25.7682C60.4792 25.7682 60.8142 25.8535 61.0944 26.0241C61.3868 26.1947 61.6061 26.4261 61.7523 26.7185C61.9107 27.0109 61.9899 27.3399 61.9899 27.7054C61.9899 28.0709 61.9107 28.3998 61.7523 28.6922C61.6061 28.9725 61.3868 29.1978 61.0944 29.3684Z" fill="#007DFC"/>
<path fill-rule="evenodd" clip-rule="evenodd" d="M70.5061 32.5845C69.5921 32.5845 68.7634 32.3835 68.0206 31.9815C67.2893 31.5672 66.7108 31.0068 66.2843 30.3001C65.8579 29.5935 65.6447 28.8016 65.6447 27.9244C65.6447 27.0472 65.8579 26.2614 66.2843 25.5669C66.7108 24.8725 67.2893 24.3242 68.0206 23.9222C68.7513 23.5079 69.58 23.3008 70.5061 23.3008C71.4316 23.3008 72.2603 23.5018 72.991 23.9039C73.7223 24.3059 74.3009 24.8603 74.7273 25.5669C75.1537 26.2614 75.367 27.0472 75.367 27.9244C75.367 28.8016 75.1537 29.5935 74.7273 30.3001C74.3009 31.0068 73.7223 31.5672 72.991 31.9815C72.2603 32.3835 71.4316 32.5845 70.5061 32.5845ZM70.5061 30.0443C70.9078 30.0443 71.261 29.959 71.5659 29.7885C71.8701 29.6057 72.1018 29.356 72.2603 29.0392C72.4308 28.7103 72.5161 28.3386 72.5161 27.9244C72.5161 27.5102 72.4308 27.1507 72.2603 26.8462C72.0897 26.5294 71.8523 26.2858 71.5474 26.1152C71.2553 25.9324 70.9078 25.8411 70.5061 25.8411C70.116 25.8411 69.7685 25.9324 69.4642 26.1152C69.1593 26.2858 68.9219 26.5294 68.7513 26.8462C68.5808 27.163 68.4955 27.5284 68.4955 27.9427C68.4955 28.3447 68.5808 28.7103 68.7513 29.0392C68.9219 29.356 69.1593 29.6057 69.4642 29.7885C69.7685 29.959 70.116 30.0443 70.5061 30.0443Z" fill="#007DFC"/>
<path fill-rule="evenodd" clip-rule="evenodd" d="M85.909 32.5666C85.3125 32.5666 84.7639 32.4508 84.2643 32.2194C84.0015 32.0975 83.7641 31.9521 83.552 31.783V36.1302H80.7922V23.5021H83.5883V24.1151C83.7912 23.9492 84.0165 23.8058 84.2643 23.6849C84.7639 23.4412 85.3125 23.3193 85.909 23.3193C86.7498 23.3193 87.4931 23.5204 88.1386 23.9225C88.7967 24.3245 89.3084 24.8727 89.6738 25.5672C90.0518 26.2617 90.2402 27.0536 90.2402 27.9429C90.2402 28.8324 90.0518 29.6243 89.6738 30.3188C89.3084 31.0132 88.7967 31.5614 88.1386 31.9635C87.4931 32.3656 86.7498 32.5666 85.909 32.5666ZM85.3978 30.0446C85.7995 30.0446 86.147 29.9532 86.4391 29.7705C86.744 29.5877 86.9814 29.3379 87.152 29.0212C87.3226 28.7044 87.4079 28.345 87.4079 27.9429C87.4079 27.5287 87.3226 27.1633 87.152 26.8465C86.9814 26.5297 86.744 26.286 86.4391 26.1155C86.147 25.9327 85.8058 25.8413 85.4157 25.8413C85.0261 25.8413 84.6786 25.9327 84.3744 26.1155C84.0816 26.286 83.8505 26.5297 83.6799 26.8465C83.5094 27.1633 83.4241 27.5287 83.4241 27.9429C83.4241 28.345 83.503 28.7044 83.6615 29.0212C83.8321 29.3379 84.0695 29.5877 84.3744 29.7705C84.6786 29.9532 85.0198 30.0446 85.3978 30.0446Z" fill="#007DFC"/>
<path d="M92.9756 32.4019C93.4873 32.536 94.0048 32.6029 94.5286 32.6029C95.6374 32.6029 96.5145 32.3471 97.1605 31.8354C97.818 31.3237 98.1471 30.6354 98.1471 29.7703C98.1471 29.2099 98.0439 28.7591 97.8364 28.418C97.6296 28.0647 97.3616 27.7844 97.0325 27.5773C96.7035 27.3702 96.356 27.2057 95.9906 27.0838C95.6253 26.962 95.2778 26.8585 94.9493 26.7732C94.6203 26.6879 94.3523 26.5904 94.1448 26.4808C93.938 26.3711 93.8342 26.2249 93.8342 26.0422C93.8342 25.8716 93.9138 25.7437 94.0717 25.6584C94.2301 25.5609 94.4676 25.5122 94.7845 25.5122C95.1136 25.5122 95.4484 25.5792 95.7895 25.7132C96.1428 25.8472 96.4597 26.0788 96.7398 26.4077L98.3297 24.7995C97.9281 24.2878 97.4042 23.904 96.7582 23.6482C96.1249 23.3801 95.4305 23.2461 94.675 23.2461C93.9564 23.2461 93.3288 23.3679 92.7929 23.6116C92.2564 23.8553 91.8421 24.1903 91.5499 24.6167C91.2577 25.0309 91.1113 25.5244 91.1113 26.097C91.1113 26.6331 91.2151 27.0778 91.422 27.4311C91.6288 27.7722 91.8974 28.0403 92.2258 28.2352C92.5549 28.4301 92.9024 28.5824 93.2678 28.692C93.6331 28.8017 93.9806 28.9053 94.3097 29.0028C94.6381 29.0881 94.9067 29.1916 95.1136 29.3134C95.3331 29.4231 95.4426 29.5876 95.4426 29.8068C95.4426 29.9774 95.351 30.1114 95.1683 30.2089C94.9977 30.3064 94.7482 30.3551 94.4191 30.3551C93.9437 30.3551 93.5052 30.2698 93.1035 30.0992C92.7013 29.9165 92.3538 29.6668 92.0616 29.35L90.4717 30.9582C90.7765 31.2871 91.1419 31.5796 91.5683 31.8354C92.0069 32.079 92.476 32.2679 92.9756 32.4019Z" fill="#007DFC"/>
<path d="M103.246 32.5847C102.43 32.5847 101.705 32.4202 101.072 32.0912C100.45 31.7501 99.9633 31.2871 99.61 30.7023C99.2562 30.1054 99.0798 29.4231 99.0798 28.6555V23.502H101.876V28.619C101.876 28.9235 101.924 29.1855 102.022 29.4048C102.132 29.6241 102.29 29.7947 102.497 29.9165C102.705 30.0383 102.954 30.0992 103.246 30.0992C103.661 30.0992 103.99 29.9713 104.233 29.7154C104.477 29.4474 104.599 29.0819 104.599 28.619V23.502H107.395V28.6372C107.395 29.417 107.219 30.1054 106.865 30.7023C106.511 31.2871 106.025 31.7501 105.403 32.0912C104.781 32.4202 104.063 32.5847 103.246 32.5847Z" fill="#007DFC"/>
<path d="M111.582 23.5021H108.786V32.3838H111.582V27.1937C111.582 26.8891 111.643 26.6333 111.765 26.4261C111.899 26.219 112.076 26.0606 112.295 25.951C112.514 25.8291 112.764 25.7682 113.044 25.7682C113.446 25.7682 113.781 25.8961 114.049 26.152C114.33 26.3957 114.47 26.7429 114.47 27.1937V32.3838H117.266V27.1937C117.266 26.8891 117.327 26.6333 117.448 26.4261C117.583 26.219 117.759 26.0606 117.978 25.951C118.197 25.8291 118.448 25.7682 118.728 25.7682C119.13 25.7682 119.465 25.8961 119.733 26.152C120.013 26.3957 120.153 26.7429 120.153 27.1937V32.3838H122.949V26.883C122.949 26.1398 122.791 25.5063 122.474 24.9824C122.169 24.4463 121.749 24.0382 121.213 23.758C120.689 23.4655 120.086 23.3193 119.404 23.3193C118.709 23.3193 118.082 23.4716 117.521 23.7763C117.157 23.9703 116.839 24.2207 116.567 24.5275C116.312 24.2066 116.004 23.944 115.639 23.7397C115.152 23.4595 114.597 23.3193 113.976 23.3193C113.318 23.3193 112.727 23.4595 112.204 23.7397C111.975 23.8562 111.769 23.9959 111.582 24.1586V23.5021Z" fill="#007DFC"/>
</g>
<defs>
<clipPath id="clip0_497_846">
<rect width="116.407" height="23.0509" fill="white" transform="translate(6.79736 15.1733)"/>
</clipPath>
</defs>
</svg>
