<svg width="209" height="33" viewBox="0 0 209 33" fill="none" xmlns="http://www.w3.org/2000/svg">
<g clip-path="url(#clip0_801_94)">
<path d="M98.6013 4.10499H88.4246V0.703125H112.585V4.10499H102.408V32.0676H98.6013V4.10499Z" fill="white"/>
<path d="M114.093 10.1612H117.56V12.8528H118.201C118.955 10.9089 120.538 10.0864 123.214 10.0864H125.852V13.3014H122.988C119.784 13.3014 117.636 15.0584 117.636 18.7219V32.0677H114.055V10.1612H114.093Z" fill="white"/>
<path d="M128.905 25.8621C128.905 21.4135 132.486 19.2452 137.235 19.2452H144.698V17.6378C144.698 14.535 142.889 12.6284 139.233 12.6284C135.577 12.6284 133.73 14.4976 133.051 17.3387L129.697 16.2546C130.752 12.591 133.73 9.56299 139.271 9.56299C144.811 9.56299 148.241 12.6284 148.241 17.8621V27.7686C148.241 28.6658 148.693 29.1144 149.523 29.1144H151.558V32.105H148.43C146.432 32.105 145.113 30.9462 145.113 29.0396V28.8153H144.585C143.643 30.5723 141.796 32.7032 137.198 32.7032C132.599 32.7032 128.943 30.2359 128.943 25.8621H128.905ZM144.698 22.5723V22.0864H137.386C134.559 22.0864 132.524 23.2826 132.524 25.7499C132.524 28.2172 134.559 29.6378 137.65 29.6378C141.909 29.6378 144.736 27.0209 144.736 22.535L144.698 22.5723Z" fill="white"/>
<path d="M152.877 10.1611H156.684L163.318 29.4509H163.959L170.592 10.1611H174.399L166.484 32.0677H160.792L152.877 10.1611Z" fill="white"/>
<path d="M177.565 21.4135V20.8901C177.565 14.1237 182.088 9.56299 188.533 9.56299C194.979 9.56299 199.162 13.7873 199.162 20.4415V22.049H181.184C181.334 26.7593 184.5 29.563 188.873 29.563C192.68 29.563 194.526 27.5817 195.619 25.1518L198.71 26.6471C197.353 29.4135 194.715 32.7032 188.797 32.7032C182.05 32.7032 177.603 28.1798 177.603 21.4135H177.565ZM195.544 19.1331C195.28 15.0583 192.529 12.6658 188.533 12.6658C184.538 12.6658 181.749 15.0583 181.221 19.1331H195.544Z" fill="white"/>
<path d="M205.419 0.703125H209V32.105H205.419V0.703125Z" fill="white"/>
<path d="M0 0.703125H3.91993L12.5513 29.8246H13.1544L21.7858 0.703125H25.7057L16.1697 32.105H9.53598L0 0.703125Z" fill="white"/>
<path d="M71.1994 0.703125H64.528L54.7659 32.0676H58.6858L61.1358 24.1424L62.1157 20.7405L67.5433 2.9835H68.1841L73.6117 20.7405L74.5917 24.1424L77.0416 32.0676H80.9615L71.1994 0.703125Z" fill="white"/>
<path d="M25.7057 0.703125H64.528L54.7659 32.105H16.1697L25.7057 0.703125Z" fill="#E6CE4D"/>
</g>
<defs>
<clipPath id="clip0_801_94">
<rect width="209" height="32" fill="white" transform="translate(0 0.703125)"/>
</clipPath>
</defs>
</svg>
