<svg width="211" height="42" viewBox="0 0 211 42" fill="none" xmlns="http://www.w3.org/2000/svg">
<g clip-path="url(#clip0_683_128)">
<path fill-rule="evenodd" clip-rule="evenodd" d="M26.9438 12.1828C25.2292 11.0372 23.2135 10.4257 21.1515 10.4257V0C25.2755 0 29.307 1.22292 32.736 3.51411C36.165 5.80529 38.8376 9.06186 40.4158 12.8719C41.9939 16.682 42.4069 20.8746 41.6024 24.9194C40.7978 28.9642 38.8119 32.6796 35.8957 35.5957C32.9796 38.5119 29.2642 40.4977 25.2194 41.3023C21.1747 42.1069 16.9821 41.6939 13.172 40.1158C9.3619 38.5375 6.10534 35.865 3.81416 32.4359C1.52297 29.0069 0.300049 24.9755 0.300049 20.8515H10.7258C10.7258 22.9135 11.3373 24.9292 12.4828 26.6437C13.6284 28.3582 15.2567 29.6945 17.1618 30.4836C19.0668 31.2727 21.1631 31.4792 23.1855 31.0768C25.2079 30.6746 27.0655 29.6817 28.5237 28.2236C29.9817 26.7655 30.9747 24.9078 31.3769 22.8854C31.7792 20.8631 31.5728 18.7668 30.7837 16.8618C29.9945 14.9567 28.6583 13.3284 26.9438 12.1828Z" fill="#007DFC"/>
<path fill-rule="evenodd" clip-rule="evenodd" d="M10.7258 5.50993e-06C10.7258 1.36913 10.4561 2.72486 9.93218 3.98977C9.40823 5.25467 8.64028 6.404 7.67216 7.37212C6.70405 8.34024 5.55472 9.10819 4.28981 9.63214C3.02489 10.1561 1.66917 10.4257 0.300049 10.4257L0.300049 20.8515C3.0383 20.8515 5.74975 20.3122 8.27957 19.2643C10.8094 18.2164 13.1081 16.6805 15.0442 14.7442C16.9805 12.808 18.5164 10.5094 19.5643 7.97952C20.6122 5.4497 21.1515 2.73825 21.1515 0L10.7258 5.50993e-06Z" fill="#007DFC"/>
<path d="M131.267 15.0679H126.209V31.1363H131.267V15.0679Z" fill="#007DFC"/>
<path d="M126.772 12.0589C127.3 12.5879 127.961 12.8524 128.755 12.8524C129.548 12.8524 130.199 12.5879 130.705 12.0589C131.213 11.5079 131.466 10.8466 131.466 10.0751C131.466 9.28163 131.213 8.62035 130.705 8.09136C130.199 7.56234 129.548 7.29785 128.755 7.29785C127.961 7.29785 127.3 7.56234 126.772 8.09136C126.264 8.62035 126.01 9.28163 126.01 10.0751C126.01 10.8466 126.264 11.5079 126.772 12.0589Z" fill="#007DFC"/>
<path d="M53.6343 31.1363V7.79395H58.8252V26.5737H69.1739V31.1363H53.6343Z" fill="#007DFC"/>
<path fill-rule="evenodd" clip-rule="evenodd" d="M78.5217 31.5C76.8686 31.5 75.3698 31.1363 74.0252 30.4089C72.7027 29.6595 71.6557 28.6456 70.8842 27.3671C70.1128 26.0887 69.7271 24.656 69.7271 23.069C69.7271 21.482 70.1128 20.0603 70.8842 18.8039C71.6557 17.5475 72.7027 16.5556 74.0252 15.8283C75.3477 15.0788 76.8466 14.7041 78.5217 14.7041C80.1969 14.7041 81.6957 15.0679 83.0182 15.7952C84.3407 16.5226 85.3878 17.5255 86.1592 18.8039C86.9307 20.0603 87.3164 21.482 87.3164 23.069C87.3164 24.656 86.9307 26.0887 86.1592 27.3671C85.3878 28.6456 84.3407 29.6595 83.0182 30.4089C81.6957 31.1363 80.1969 31.5 78.5217 31.5ZM78.5217 26.9043C79.2491 26.9043 79.8883 26.75 80.4394 26.4414C80.9904 26.1108 81.4092 25.659 81.6957 25.0858C82.0043 24.4907 82.1586 23.8184 82.1586 23.069C82.1586 22.3196 82.0043 21.6693 81.6957 21.1183C81.3871 20.5452 80.9573 20.1044 80.4062 19.7958C79.8772 19.4651 79.2491 19.2999 78.5217 19.2999C77.8164 19.2999 77.1882 19.4651 76.6371 19.7958C76.0861 20.1044 75.6563 20.5452 75.3477 21.1183C75.0391 21.6914 74.8849 22.3526 74.8849 23.102C74.8849 23.8294 75.0391 24.4907 75.3477 25.0858C75.6563 25.659 76.0861 26.1108 76.6371 26.4414C77.1882 26.75 77.8164 26.9043 78.5217 26.9043Z" fill="#007DFC"/>
<path fill-rule="evenodd" clip-rule="evenodd" d="M91.3228 37.4179C92.6673 38.035 94.2212 38.3436 95.9847 38.3436C97.7039 38.3436 99.2358 38.002 100.58 37.3187C101.925 36.6354 102.983 35.6877 103.754 34.4754C104.526 33.2631 104.912 31.8303 104.912 30.1771V15.0675H99.9521V16.1471C99.5832 15.8366 99.1643 15.576 98.6958 15.3651C97.8361 14.9463 96.8552 14.7368 95.7532 14.7368C94.2764 14.7368 92.9648 15.0895 91.8187 15.7948C90.6724 16.4781 89.7688 17.4259 89.1075 18.6382C88.4462 19.8285 88.1157 21.173 88.1157 22.672C88.1157 24.1488 88.4462 25.4933 89.1075 26.7056C89.7688 27.9179 90.6724 28.8767 91.8187 29.582C92.9648 30.2873 94.2764 30.64 95.7532 30.64C96.8332 30.64 97.8141 30.4307 98.6958 30.0119C99.1228 29.809 99.5086 29.5699 99.8529 29.2946V30.3094C99.8529 31.4335 99.4893 32.3042 98.7619 32.9214C98.0566 33.5386 97.0757 33.8471 95.8193 33.8471C94.8054 33.8471 93.9347 33.6708 93.2073 33.3181C92.502 32.9655 91.8627 32.4474 91.2896 31.7641L88.1818 34.8721C88.9532 35.9742 90.0003 36.8228 91.3228 37.4179ZM98.5304 25.6806C98.0234 25.9892 97.4174 26.1435 96.712 26.1435C96.0067 26.1435 95.3895 25.9892 94.8604 25.6806C94.3534 25.372 93.9567 24.9532 93.6702 24.4242C93.3836 23.8732 93.2404 23.2891 93.2404 22.672C93.2404 22.0107 93.3836 21.4155 93.6702 20.8865C93.9567 20.3575 94.3645 19.9387 94.8935 19.6301C95.4225 19.3215 96.0287 19.1672 96.712 19.1672C97.4174 19.1672 98.0234 19.3215 98.5304 19.6301C99.0594 19.9387 99.4561 20.3575 99.7207 20.8865C100.007 21.4155 100.15 22.0107 100.15 22.672C100.15 23.3332 100.007 23.9283 99.7207 24.4573C99.4561 24.9643 99.0594 25.372 98.5304 25.6806Z" fill="#007DFC"/>
<path fill-rule="evenodd" clip-rule="evenodd" d="M115.558 31.5C113.904 31.5 112.405 31.1363 111.061 30.4089C109.738 29.6595 108.691 28.6456 107.92 27.3671C107.148 26.0887 106.762 24.656 106.762 23.069C106.762 21.482 107.148 20.0603 107.92 18.8039C108.691 17.5475 109.738 16.5556 111.061 15.8283C112.383 15.0788 113.882 14.7041 115.558 14.7041C117.232 14.7041 118.731 15.0679 120.053 15.7952C121.376 16.5226 122.423 17.5255 123.194 18.8039C123.966 20.0603 124.352 21.482 124.352 23.069C124.352 24.656 123.966 26.0887 123.194 27.3671C122.423 28.6456 121.376 29.6595 120.053 30.4089C118.731 31.1363 117.232 31.5 115.558 31.5ZM115.558 26.9043C116.284 26.9043 116.923 26.75 117.475 26.4414C118.025 26.1108 118.444 25.659 118.731 25.0858C119.04 24.4907 119.194 23.8184 119.194 23.069C119.194 22.3196 119.04 21.6693 118.731 21.1183C118.423 20.5452 117.993 20.1044 117.442 19.7958C116.913 19.4651 116.284 19.2999 115.558 19.2999C114.852 19.2999 114.223 19.4651 113.673 19.7958C113.121 20.1044 112.692 20.5452 112.383 21.1183C112.074 21.6914 111.92 22.3526 111.92 23.102C111.92 23.8294 112.074 24.4907 112.383 25.0858C112.692 25.659 113.121 26.1108 113.673 26.4414C114.223 26.75 114.852 26.9043 115.558 26.9043Z" fill="#007DFC"/>
<path fill-rule="evenodd" clip-rule="evenodd" d="M143.426 31.4666C142.347 31.4666 141.354 31.2572 140.45 30.8384C139.975 30.618 139.545 30.3549 139.162 30.049V37.9139H134.169V15.0675H139.227V16.1765C139.594 15.8764 140.002 15.6169 140.45 15.3981C141.354 14.9572 142.347 14.7368 143.426 14.7368C144.947 14.7368 146.292 15.1006 147.459 15.828C148.65 16.5553 149.576 17.5472 150.237 18.8036C150.921 20.06 151.262 21.4927 151.262 23.1017C151.262 24.7108 150.921 26.1435 150.237 27.3999C149.576 28.6563 148.65 29.6481 147.459 30.3755C146.292 31.1029 144.947 31.4666 143.426 31.4666ZM142.501 26.904C143.228 26.904 143.856 26.7386 144.385 26.408C144.936 26.0774 145.366 25.6255 145.675 25.0525C145.983 24.4794 146.137 23.8291 146.137 23.1017C146.137 22.3523 145.983 21.6911 145.675 21.118C145.366 20.5449 144.936 20.1041 144.385 19.7955C143.856 19.4648 143.239 19.2995 142.533 19.2995C141.829 19.2995 141.2 19.4648 140.649 19.7955C140.12 20.1041 139.702 20.5449 139.393 21.118C139.084 21.6911 138.93 22.3523 138.93 23.1017C138.93 23.8291 139.073 24.4794 139.36 25.0525C139.668 25.6255 140.098 26.0774 140.649 26.408C141.2 26.7386 141.817 26.904 142.501 26.904Z" fill="#007DFC"/>
<path d="M156.213 31.1694C157.139 31.4119 158.075 31.5331 159.023 31.5331C161.028 31.5331 162.615 31.0703 163.784 30.1444C164.974 29.2187 165.569 27.9734 165.569 26.4084C165.569 25.3945 165.382 24.5789 165.007 23.9618C164.633 23.3226 164.148 22.8156 163.553 22.4409C162.957 22.0662 162.329 21.7685 161.668 21.5481C161.007 21.3277 160.378 21.1404 159.784 20.9861C159.188 20.8318 158.704 20.6555 158.328 20.4571C157.954 20.2587 157.766 19.9942 157.766 19.6636C157.766 19.3549 157.91 19.1235 158.196 18.9692C158.483 18.7929 158.912 18.7048 159.485 18.7048C160.081 18.7048 160.687 18.8259 161.304 19.0684C161.943 19.3108 162.516 19.7298 163.023 20.3249L165.899 17.4153C165.173 16.4895 164.225 15.7952 163.056 15.3324C161.911 14.8475 160.654 14.605 159.287 14.605C157.987 14.605 156.852 14.8254 155.882 15.2662C154.912 15.7071 154.162 16.3132 153.634 17.0846C153.105 17.834 152.84 18.7268 152.84 19.7628C152.84 20.7326 153.028 21.5372 153.402 22.1764C153.776 22.7935 154.262 23.2785 154.856 23.6311C155.452 23.9838 156.08 24.2593 156.741 24.4576C157.402 24.656 158.031 24.8434 158.626 25.0198C159.221 25.1741 159.707 25.3614 160.081 25.5818C160.478 25.7802 160.676 26.0778 160.676 26.4745C160.676 26.7831 160.51 27.0255 160.18 27.2019C159.871 27.3782 159.42 27.4664 158.824 27.4664C157.964 27.4664 157.171 27.3121 156.444 27.0035C155.717 26.6729 155.088 26.221 154.559 25.6479L151.683 28.5574C152.234 29.1525 152.895 29.6816 153.667 30.1444C154.46 30.5852 155.309 30.9269 156.213 31.1694Z" fill="#007DFC"/>
<path d="M174.794 31.5C173.317 31.5 172.006 31.2024 170.86 30.6073C169.735 29.9901 168.854 29.1525 168.215 28.0945C167.575 27.0145 167.256 25.7802 167.256 24.3915V15.0679H172.314V24.3254C172.314 24.8764 172.402 25.3504 172.579 25.7471C172.777 26.1439 173.064 26.4525 173.438 26.6729C173.814 26.8933 174.265 27.0035 174.794 27.0035C175.543 27.0035 176.139 26.772 176.58 26.3091C177.021 25.8242 177.241 25.163 177.241 24.3254V15.0679H182.299V24.3585C182.299 25.7692 181.98 27.0145 181.34 28.0945C180.701 29.1525 179.82 29.9901 178.695 30.6073C177.571 31.2024 176.271 31.5 174.794 31.5Z" fill="#007DFC"/>
<path d="M189.872 15.0675H184.814V31.136H189.872V21.7461C189.872 21.1951 189.983 20.7322 190.203 20.3575C190.446 19.9828 190.766 19.6962 191.162 19.4979C191.559 19.2774 192.011 19.1672 192.517 19.1672C193.245 19.1672 193.851 19.3987 194.336 19.8616C194.843 20.3024 195.097 20.9306 195.097 21.7461V31.136H200.155V21.7461C200.155 21.1951 200.266 20.7322 200.486 20.3575C200.729 19.9828 201.048 19.6962 201.445 19.4979C201.841 19.2774 202.294 19.1672 202.8 19.1672C203.528 19.1672 204.134 19.3987 204.618 19.8616C205.125 20.3024 205.378 20.9306 205.378 21.7461V31.136H210.438V21.1841C210.438 19.8396 210.151 18.6934 209.578 17.7456C209.026 16.7757 208.266 16.0373 207.297 15.5304C206.349 15.0013 205.258 14.7368 204.023 14.7368C202.767 14.7368 201.631 15.0124 200.618 15.5635C199.959 15.9145 199.384 16.3676 198.891 16.9227C198.431 16.3421 197.872 15.867 197.212 15.4973C196.331 14.9904 195.328 14.7368 194.204 14.7368C193.014 14.7368 191.945 14.9904 190.997 15.4973C190.584 15.7082 190.21 15.9608 189.872 16.2551V15.0675Z" fill="#007DFC"/>
</g>
<defs>
<clipPath id="clip0_683_128">
<rect width="210.6" height="41.703" fill="white" transform="translate(0.300049)"/>
</clipPath>
</defs>
</svg>
